<svg width="54" height="84" viewBox="0 0 54 84" fill="none" xmlns="http://www.w3.org/2000/svg">
<path d="M12.3334 83.0667C5.8537 83.0667 0.600098 77.8131 0.600098 71.3333C0.600098 64.8536 5.8537 59.6 12.3334 59.6H20.714C22.5649 59.6 24.0668 61.1019 24.0668 62.9528V71.3333C24.0668 77.8131 18.8132 83.0667 12.3334 83.0667ZM41.6668 24.4H33.2862C31.4353 24.4 29.9334 22.8981 29.9334 21.0472V4.28615C29.9334 2.43522 31.4353 0.93335 33.2862 0.93335H41.6668C48.1465 0.93335 53.4001 6.18695 53.4001 12.6667C53.4001 19.1464 48.1465 24.4 41.6668 24.4ZM12.3334 0.93335H20.714C22.5649 0.93335 24.0668 2.43522 24.0668 4.28615V21.0472C24.0668 22.8981 22.5649 24.4 20.714 24.4H12.3334C5.8537 24.4 0.600098 19.1464 0.600098 12.6667C0.600098 6.18695 5.8537 0.93335 12.3334 0.93335ZM12.3334 30.2667H20.714C22.5649 30.2667 24.0668 31.7685 24.0668 33.6195V50.3805C24.0668 52.2315 22.5649 53.7333 20.714 53.7333H12.3334C5.8537 53.7333 0.600098 48.4797 0.600098 42C0.600098 35.5203 5.8537 30.2667 12.3334 30.2667ZM41.6668 30.2667C38.5549 30.2667 35.5705 31.5029 33.37 33.7033C31.1696 35.9037 29.9334 38.8881 29.9334 42C29.9334 45.1119 31.1696 48.0963 33.37 50.2967C35.5705 52.4972 38.5549 53.7333 41.6668 53.7333C44.7786 53.7333 47.7631 52.4972 49.9635 50.2967C52.1639 48.0963 53.4001 45.1119 53.4001 42C53.4001 38.8881 52.1639 35.9037 49.9635 33.7033C47.7631 31.5029 44.7786 30.2667 41.6668 30.2667Z" fill="#4EC4B1"/>
</svg>
