<svg width="66" height="72" viewBox="0 0 66 72" fill="none" xmlns="http://www.w3.org/2000/svg">
<path d="M64.2842 0.999C63.7142 0.363 62.9012 0 62.0492 0H3.95118C3.09918 0 2.28618 0.363 1.71618 0.999C1.14618 1.635 0.876176 2.484 0.969176 3.33L7.57518 62.799C7.70718 64.008 8.56218 65.019 9.73218 65.352L32.1722 71.763C32.4422 71.841 32.7212 71.88 32.9972 71.88C33.2732 71.88 33.5522 71.841 33.8222 71.763L56.2622 65.352C57.4322 65.019 58.2842 64.008 58.4192 62.799L65.0282 3.33C65.1242 2.484 64.8542 1.635 64.2842 0.999ZM49.8872 22.29H23.0972L23.7332 29.916H49.2422L47.3282 52.446L33.0092 57L32.8682 56.955L18.7082 52.44L17.9342 43.26H24.8702L25.1732 46.827L33.0842 48.57L40.8572 46.824L41.6822 37.185H17.4122L15.5342 15H50.5112L49.8872 22.29Z" fill="#4EC4B1"/>
</svg>
