<svg width="28" height="40" viewBox="0 0 28 40" fill="none" xmlns="http://www.w3.org/2000/svg">
<path d="M8.17927 0H0V2.35294H0.728291C1.5873 2.35294 2.35294 2.44631 3.02521 2.63305C3.73483 2.81979 4.29505 3.19328 4.70588 3.7535C5.11671 4.31373 5.32213 5.19141 5.32213 6.38656V33.6134C5.32213 34.7712 5.11671 35.6489 4.70588 36.2465C4.29505 36.8067 3.73483 37.1802 3.02521 37.3669C2.35294 37.5537 1.5873 37.6471 0.728291 37.6471H0V40H8.17927V0Z" fill="#C8D2F2"/>
<path d="M10.9804 40V0H26.8908L27.1709 9.80392H24.2577L23.9776 7.39496C23.9029 6.5733 23.6975 5.82633 23.3613 5.15406C23.0626 4.44444 22.5957 3.88422 21.9608 3.47339C21.3259 3.02521 20.4482 2.80112 19.3277 2.80112H13.8936V33.6134C13.8936 34.7712 14.099 35.6489 14.5098 36.2465C14.9206 36.8067 15.4809 37.1802 16.1905 37.3669C16.9001 37.5537 17.6657 37.6471 18.4874 37.6471H19.7759V40H10.9804Z" fill="#C8D2F2"/>
</svg>
