<svg width="50" height="50" viewBox="0 0 50 50" fill="none" xmlns="http://www.w3.org/2000/svg">
<path fill-rule="evenodd" clip-rule="evenodd" d="M0 4.40301V45.9117C0 48.1699 1.13768 50 2.70506 50H47.2949C48.8607 50 50 48.1486 50 45.9117V4.40301C50 1.92488 48.9811 0 47.2949 0H2.70506C0.95376 0 0 1.97218 0 4.40301ZM4.11132 8.01857C4.11132 7.01832 4.52801 6.44593 5.1937 6.44593C5.60549 6.44593 21.8083 21.3621 22.7897 22.237L25.3255 24.5282C26.1296 23.7456 26.9369 23.0764 27.7702 22.2653C29.471 20.6858 44.6045 6.44593 45.0212 6.44593C45.6885 6.44593 46.1035 7.01832 46.1035 8.01857C46.1035 9.07791 44.6989 10.1301 43.7842 10.9412C38.0371 16.0298 32.2917 21.5772 26.6016 26.855C26.2695 27.1813 25.6266 27.8791 25.1448 27.7727C24.6077 27.6521 8.12011 12.2629 5.12043 9.69959C4.66959 9.31415 4.11132 8.96205 4.11132 8.01857Z" fill="#0A192F"/>
</svg>
