<svg width="72" height="66" viewBox="0 0 72 66" fill="none" xmlns="http://www.w3.org/2000/svg">
<path d="M23.0391 0.544922C21.2061 0.544922 19.506 0.955266 18 1.82227C13.2934 4.53964 11.5019 11.1616 12.4512 19.4062C4.8381 22.7065 0 27.566 0 33C0 38.434 4.8381 43.2935 12.4512 46.5938C11.5024 54.838 13.2934 61.4604 18 64.1777C19.503 65.0447 21.2031 65.4551 23.0391 65.4551C26.9469 65.4551 31.4635 63.4938 36 60.1289C40.5368 63.4938 45.0589 65.4551 48.9668 65.4551C50.7998 65.4551 52.4999 65.0447 54.0059 64.1777C58.7124 61.4604 60.5039 54.8383 59.5547 46.5938C67.1649 43.2935 72 38.4328 72 33C72 27.566 67.1619 22.7065 59.5488 19.4062C60.4976 11.162 58.7066 4.53964 54 1.82227C52.497 0.952266 50.7969 0.544922 48.9609 0.544922C45.0531 0.544922 40.5365 2.50623 36 5.87109C31.4633 2.50623 26.9456 0.544922 23.0391 0.544922ZM23.0391 5.79492C25.384 5.79492 28.4849 7.04175 31.8516 9.35156C29.8721 11.2196 27.9335 13.3438 26.0684 15.709C23.0432 16.1427 20.191 16.7751 17.5488 17.5664C17.5346 17.3832 17.501 17.1909 17.4902 17.0098C17.1692 11.6698 18.342 7.68914 20.625 6.36914C21.3 5.97914 22.0881 5.79492 23.0391 5.79492ZM48.9609 5.79492C49.9089 5.79492 50.7 5.97914 51.375 6.36914C53.658 7.68614 54.8308 11.6698 54.5098 17.0098C54.4989 17.1909 54.4654 17.3832 54.4512 17.5664C51.8073 16.7746 48.953 16.1428 45.9258 15.709C44.0607 13.3441 42.1278 11.2194 40.1484 9.35156C43.5149 7.04213 46.6173 5.79492 48.9609 5.79492ZM36 12.6855C36.8132 13.4258 37.6208 14.2081 38.4375 15.0645C37.6282 15.0373 36.8231 15 36 15C35.1789 15 34.3758 15.0374 33.5684 15.0645C34.3843 14.209 35.1875 13.4251 36 12.6855ZM36 20.25C38.4861 20.25 40.8424 20.389 43.0781 20.6309C44.4416 22.4841 45.7853 24.4434 47.0449 26.625C48.2522 28.7161 49.3198 30.8565 50.2617 33C49.3197 35.1448 48.2529 37.2885 47.0449 39.3809C45.7892 41.5561 44.4488 43.5028 43.0898 45.3516C40.7751 45.6048 38.4007 45.75 36 45.75C33.5139 45.75 31.1576 45.611 28.9219 45.3691C27.5584 43.5159 26.2147 41.5624 24.9551 39.3809C23.7471 37.2885 22.6806 35.1448 21.7383 33C22.6799 30.8565 23.7478 28.7161 24.9551 26.625C26.2113 24.4497 27.5508 22.4972 28.9102 20.6484C31.2249 20.3952 33.5993 20.25 36 20.25ZM50.2383 21.873C51.4285 22.1604 52.5728 22.4706 53.6484 22.8164C53.4047 23.9176 53.1067 25.0398 52.7695 26.1738C52.3835 25.4494 52.0091 24.7227 51.5918 24C51.1624 23.2566 50.6857 22.5887 50.2383 21.873ZM21.7559 21.8789C21.3099 22.5923 20.8362 23.259 20.4082 24C19.991 24.7228 19.6164 25.4493 19.2305 26.1738C18.8925 25.0375 18.5896 23.9139 18.3457 22.8105C19.4411 22.4644 20.5825 22.158 21.7559 21.8789ZM13.4062 24.7383C14.0383 27.4071 14.9152 30.1738 16.043 32.9941C14.9176 35.8078 14.0444 38.5694 13.4121 41.2324C8.1877 38.7096 5.25 35.5691 5.25 33C5.25 30.363 8.10562 27.3578 12.8906 24.9668C13.054 24.8851 13.2394 24.8181 13.4062 24.7383ZM58.5879 24.7676C63.8123 27.2904 66.75 30.4309 66.75 33C66.75 35.637 63.8944 38.6422 59.1094 41.0332C58.946 41.1149 58.7606 41.1819 58.5938 41.2617C57.9613 38.5913 57.0916 35.8221 55.9629 33C57.0869 30.1887 57.9561 27.4284 58.5879 24.7676ZM36 27C32.685 27 30 29.685 30 33C30 36.315 32.685 39 36 39C39.315 39 42 36.315 42 33C42 29.685 39.315 27 36 27ZM19.2305 39.8262C19.6166 40.5508 19.9966 41.277 20.4141 42C20.843 42.7429 21.3147 43.4118 21.7617 44.127C20.5715 43.8396 19.4272 43.5294 18.3516 43.1836C18.5954 42.0818 18.893 40.9609 19.2305 39.8262ZM52.7695 39.832C53.1071 40.9673 53.4105 42.0872 53.6543 43.1895C52.5589 43.5356 51.4175 43.842 50.2441 44.1211C50.6901 43.4077 51.1638 42.741 51.5918 42C52.0081 41.2787 52.3843 40.555 52.7695 39.832ZM17.5488 48.4336C20.1927 49.2254 23.047 49.8572 26.0742 50.291C27.9399 52.657 29.8713 54.7858 31.8516 56.6543C28.4851 58.9634 25.3838 60.2109 23.0391 60.2109C22.0911 60.2109 21.3 60.0209 20.625 59.6309C18.342 58.3139 17.1692 54.3361 17.4902 48.9961C17.5012 48.8131 17.5344 48.6188 17.5488 48.4336ZM54.4512 48.4336C54.4655 48.6188 54.4989 48.8131 54.5098 48.9961C54.8308 54.3361 53.658 58.3109 51.375 59.6309C50.7 60.0209 49.9119 60.2109 48.9609 60.2109C46.6162 60.2109 43.5149 58.9638 40.1484 56.6543C42.1289 54.7856 44.0656 52.6574 45.9316 50.291C48.9568 49.8572 51.809 49.2249 54.4512 48.4336ZM33.5625 50.9355C34.3718 50.9627 35.1769 51 36 51C36.8231 51 37.6282 50.9627 38.4375 50.9355C37.6208 51.7919 36.8132 52.5743 36 53.3145C35.1868 52.5742 34.3792 51.7919 33.5625 50.9355Z" fill="#4EC4B1"/>
</svg>
